<svg width="39" height="40" viewBox="0 0 39 40" fill="none" xmlns="http://www.w3.org/2000/svg">
<path d="M15.873 24.4048L15.873 19.5238" stroke="#D9D9D9" stroke-width="2" stroke-linecap="round"/>
<path d="M12.6984 8.13495L9.5238 14.6429M25.3968 8.13495L28.5714 14.6429" stroke="#D9D9D9" stroke-width="2" stroke-linecap="round"/>
<path d="M22.2222 24.4048L22.2222 19.5238" stroke="#D9D9D9" stroke-width="2" stroke-linecap="round"/>
<path d="M4.7619 14.6429H4.93943C6.38255 14.6429 7.10411 14.6429 7.63722 15.0423C8.17032 15.4418 8.37301 16.1343 8.77838 17.5193L11.8565 28.0363C12.2619 29.4213 12.4646 30.1138 12.9977 30.5133C13.5308 30.9127 14.2524 30.9127 15.6955 30.9127H22.3997C23.8429 30.9127 24.5644 30.9127 25.0975 30.5133C25.6306 30.1138 25.8333 29.4213 26.2387 28.0363L29.3169 17.5193C29.7222 16.1343 29.9249 15.4418 30.458 15.0423C30.9911 14.6429 31.7127 14.6429 33.1558 14.6429H33.3333" stroke="#D9D9D9" stroke-width="2" stroke-linecap="round"/>
<path d="M4.7619 14.6429L33.3333 14.6429" stroke="#D9D9D9" stroke-width="2" stroke-linecap="round"/>
</svg>
