<svg width="23" height="28" viewBox="0 0 23 28" fill="none" xmlns="http://www.w3.org/2000/svg">
<path d="M8.47423 8.44334C9.24076 7.67681 10.5361 7.41241 11.0515 7.41241C12.0825 7.41241 13.1134 7.92788 13.6289 8.44334C14.1443 8.95881 14.6598 9.98973 14.6598 11.0207C14.6598 12.0516 14.2551 12.9718 13.6289 13.598C12.9625 14.2644 12.0825 14.6289 11.0515 14.6289C10.0206 14.6289 9.15883 14.2826 8.47423 13.598C7.97329 13.097 7.4433 12.0516 7.4433 11.0207C7.4433 9.98973 7.70769 9.20987 8.47423 8.44334Z" stroke="#D9D9D9" stroke-width="2"/>
<path d="M1 5.75L11.0515 2L21.1031 5.75V13.25C21.1031 16.375 20.2643 19.3245 18.1298 22.2863C15.943 25.3206 12.308 27 11.0515 27C9.7951 27 6.21759 25.2061 3.85817 22C1.69421 19.0595 1 16.375 1 13.25V5.75Z" stroke="#D9D9D9" stroke-width="2"/>
<path d="M18.3325 22.1031C18.3325 22.1031 15.3686 20.1057 11.0516 20.1057C6.73457 20.1057 4.02838 22.1031 4.02838 22.1031" stroke="#D9D9D9" stroke-width="2"/>
</svg>
